<svg width="882" height="337" viewBox="0 0 882 337" fill="none" xmlns="http://www.w3.org/2000/svg">
<g clip-path="url(#clip0_103_29)">
<path d="M139.51 253.75C189.044 253.75 229.2 213.595 229.2 164.06C229.2 114.526 189.044 74.3701 139.51 74.3701C89.9756 74.3701 49.8201 114.526 49.8201 164.06C49.8201 213.595 89.9756 253.75 139.51 253.75Z" fill="url(#paint0_radial_103_29)"/>
<path d="M168.08 259.5C139.23 259.5 115.85 282.89 115.85 311.73H220.32C220.32 282.88 196.93 259.5 168.09 259.5H168.08Z" fill="url(#paint1_radial_103_29)"/>
<path d="M772.69 311.72H629.7C629.7 286.99 642.26 265.2 661.34 252.36C672.73 244.7 686.45 240.23 701.2 240.23C740.68 240.23 772.69 272.24 772.69 311.72Z" fill="url(#paint2_radial_103_29)"/>
<path style="mix-blend-mode:multiply" opacity="0.3" d="M772.69 311.72H656.26C652.36 303.93 650.2 295.31 650.2 286.24C650.2 273.77 654.29 262.14 661.34 252.36C672.73 244.7 686.45 240.23 701.2 240.23C740.68 240.23 772.69 272.24 772.69 311.72Z" fill="url(#paint3_radial_103_29)"/>
<path d="M739.89 303.8C789.424 303.8 829.58 263.644 829.58 214.11C829.58 164.576 789.424 124.42 739.89 124.42C690.356 124.42 650.2 164.576 650.2 214.11C650.2 263.644 690.356 303.8 739.89 303.8Z" fill="url(#paint4_radial_103_29)"/>
<path style="mix-blend-mode:multiply" opacity="0.3" d="M178.6 133.24C191.474 133.24 201.91 122.804 201.91 109.93C201.91 97.0564 191.474 86.6201 178.6 86.6201C165.726 86.6201 155.29 97.0564 155.29 109.93C155.29 122.804 165.726 133.24 178.6 133.24Z" fill="url(#paint5_radial_103_29)"/>
<path style="mix-blend-mode:multiply" opacity="0.3" d="M745.55 185.88C768.868 185.88 787.77 169.14 787.77 148.49C787.77 127.84 768.868 111.1 745.55 111.1C722.233 111.1 703.33 127.84 703.33 148.49C703.33 169.14 722.233 185.88 745.55 185.88Z" fill="url(#paint6_radial_103_29)"/>
<path d="M203.84 108.02C221.436 108.02 235.7 93.7558 235.7 76.1601C235.7 58.5643 221.436 44.3 203.84 44.3C186.244 44.3 171.98 58.5643 171.98 76.1601C171.98 93.7558 186.244 108.02 203.84 108.02Z" fill="url(#paint7_radial_103_29)"/>
<path d="M737.11 144.8C768.055 144.8 793.14 119.715 793.14 88.77C793.14 57.8255 768.055 32.74 737.11 32.74C706.166 32.74 681.08 57.8255 681.08 88.77C681.08 119.715 706.166 144.8 737.11 144.8Z" fill="url(#paint8_radial_103_29)"/>
<path opacity="0.5" d="M576.91 185.5C607.854 185.5 632.94 160.414 632.94 129.47C632.94 98.5254 607.854 73.4399 576.91 73.4399C545.965 73.4399 520.88 98.5254 520.88 129.47C520.88 160.414 545.965 185.5 576.91 185.5Z" fill="url(#paint9_radial_103_29)"/>
<path opacity="0.5" d="M330.65 138.24C353.796 138.24 372.56 119.476 372.56 96.3299C372.56 73.1837 353.796 54.4199 330.65 54.4199C307.504 54.4199 288.74 73.1837 288.74 96.3299C288.74 119.476 307.504 138.24 330.65 138.24Z" fill="url(#paint10_radial_103_29)"/>
<path d="M644.09 71.4299C659.073 71.4299 671.22 59.2834 671.22 44.2999C671.22 29.3164 659.073 17.1699 644.09 17.1699C629.106 17.1699 616.96 29.3164 616.96 44.2999C616.96 59.2834 629.106 71.4299 644.09 71.4299Z" fill="url(#paint11_radial_103_29)"/>
<path d="M283.27 24.76C290.107 24.76 295.65 19.2173 295.65 12.38C295.65 5.54272 290.107 0 283.27 0C276.433 0 270.89 5.54272 270.89 12.38C270.89 19.2173 276.433 24.76 283.27 24.76Z" fill="url(#paint12_radial_103_29)"/>
<path d="M582.35 18.5499C585.769 18.5499 588.54 15.7786 588.54 12.3599C588.54 8.94128 585.769 6.16992 582.35 6.16992C578.931 6.16992 576.16 8.94128 576.16 12.3599C576.16 15.7786 578.931 18.5499 582.35 18.5499Z" fill="url(#paint13_radial_103_29)"/>
<path d="M219.21 145.54C219.21 145.54 246.43 129.57 311.9 132.42C389.24 135.78 419.57 156.1 419.57 156.1C419.57 156.1 428.07 166.62 447.18 166.06C466.29 165.5 474.87 155.31 474.87 155.31C474.87 155.31 508.1 137.68 567.26 133.44C643.36 127.99 675.56 145.55 675.56 145.55L664.6 153.46C664.6 153.46 594.7 134.63 546.47 141.07C498.24 147.51 471.47 171.58 471.47 171.58H425.78C425.78 171.58 330.16 117.14 219.23 145.55L219.21 145.54Z" fill="url(#paint14_linear_103_29)"/>
<path fill-rule="evenodd" clip-rule="evenodd" d="M675.55 145.54V178.69C675.55 178.69 538.27 188.03 523.93 202.03C513.26 212.45 506.77 259.23 499.54 266.36C492.53 273.27 490.17 266.43 490.17 266.43C490.17 266.43 491.37 262.11 493.33 255.5C493.33 255.47 493.35 255.44 493.36 255.4C493.36 255.4 493.36 255.393 493.36 255.38C498.9 236.75 510.64 199.68 519.08 189.54C531.08 175.14 675.53 145.53 675.53 145.53L675.55 145.54Z" fill="url(#paint15_linear_103_29)"/>
<path style="mix-blend-mode:multiply" fill-rule="evenodd" clip-rule="evenodd" d="M675.55 178.69C675.55 178.69 538.27 188.03 523.93 202.03C513.26 212.45 506.77 259.23 499.54 266.36C492.53 273.27 490.17 266.43 490.17 266.43C490.17 266.43 491.37 262.11 493.33 255.5C493.05 256.49 491.34 262.77 491.75 265.74C492.2 268.98 499.9 266.75 506.56 246.2C513.35 225.26 517.13 204.76 522.58 198.67C528.16 192.43 640.24 175.95 675.54 178.68L675.55 178.69Z" fill="url(#paint16_linear_103_29)"/>
<path fill-rule="evenodd" clip-rule="evenodd" d="M219.21 145.54V178.69C219.21 178.69 356.49 188.03 370.83 202.03C381.5 212.45 387.99 259.23 395.22 266.36C402.23 273.27 404.59 266.43 404.59 266.43C404.59 266.43 403.39 262.11 401.43 255.5C401.43 255.47 401.41 255.44 401.4 255.4C401.4 255.4 401.4 255.393 401.4 255.38C395.86 236.75 384.12 199.68 375.68 189.54C363.68 175.14 219.23 145.53 219.23 145.53L219.21 145.54Z" fill="url(#paint17_linear_103_29)"/>
<path style="mix-blend-mode:multiply" fill-rule="evenodd" clip-rule="evenodd" d="M219.21 178.69C219.21 178.69 356.49 188.03 370.83 202.03C381.5 212.45 387.99 259.23 395.22 266.36C402.23 273.27 404.59 266.43 404.59 266.43C404.59 266.43 403.39 262.11 401.43 255.5C401.71 256.49 403.42 262.77 403.01 265.74C402.56 268.98 394.86 266.75 388.2 246.2C381.41 225.26 377.63 204.76 372.18 198.67C366.6 192.43 254.52 175.95 219.22 178.68L219.21 178.69Z" fill="url(#paint18_linear_103_29)"/>
<path fill-rule="evenodd" clip-rule="evenodd" d="M407.7 203.99C399.6 217.49 380.42 227.61 384.81 252.8C384.81 252.8 405.94 233.46 407.7 203.99Z" fill="url(#paint19_radial_103_29)"/>
<path fill-rule="evenodd" clip-rule="evenodd" d="M219.21 145.54C219.21 145.54 242.42 136.01 281.32 134.6C281.32 134.6 226.66 139.2 228 191.22C228 191.22 226.88 182.74 219.21 179.45V145.54Z" fill="url(#paint20_linear_103_29)"/>
<path fill-rule="evenodd" clip-rule="evenodd" d="M447.38 167.94C426.54 167.5 417.47 157 417.47 157C386.94 142.15 345.03 135.29 308.31 134.26C305.07 134.18 301.88 134.13 298.72 134.13C297.71 134.13 296.7 134.13 295.7 134.15C292.1 134.18 288.57 134.26 285.12 134.4C256.66 135.61 234.5 140.66 228.69 148.23C225.44 152.46 224.15 170.68 228.24 192.58C229.27 198.09 230.64 203.83 232.4 209.64C235.53 219.96 239.92 230.51 245.86 240.33C246.67 241.69 247.52 243.04 248.42 244.36C249.06 245.34 249.72 246.31 250.41 247.28C251.94 249.42 253.54 251.53 255.25 253.56C260.98 260.45 267.71 266.65 275.6 271.76C280.14 274.7 285.04 277.28 290.37 279.41C299.1 282.91 308.93 285.21 319.97 285.97C321.12 286.05 322.28 286.11 323.46 286.16C324.96 286.22 326.49 286.24 328.04 286.24C329.59 286.24 331.12 286.21 332.62 286.16C334.29 286.1 335.93 286.01 337.54 285.89C344.13 285.39 350.22 284.37 355.84 282.91C357.54 282.48 359.19 281.99 360.8 281.48C381.41 274.89 395.29 262.27 404.78 248.72C407.14 245.34 409.23 241.92 411.08 238.5C413.83 233.43 416.06 228.41 417.89 223.71C419.01 220.81 419.98 218.02 420.83 215.42C423.94 205.82 425.37 198.62 426.47 196.79C432.61 186.62 444.75 186.96 447.13 187.13C447.4 187.15 447.55 187.17 447.55 187.17V167.97C447.48 167.97 447.41 167.97 447.34 167.97L447.38 167.94ZM332.03 273.62C259.26 274.29 230.2 188.29 255.18 166.19C290.88 134.62 397.76 155.23 406.12 175.02C414.49 194.84 404.78 272.94 332.03 273.62Z" fill="url(#paint21_linear_103_29)"/>
<path style="mix-blend-mode:screen" opacity="0.5" fill-rule="evenodd" clip-rule="evenodd" d="M332.03 273.62C259.26 274.3 230.21 188.3 255.19 166.19C290.89 134.62 397.77 155.22 406.13 175.02C414.49 194.84 404.79 272.94 332.03 273.62Z" fill="url(#paint22_radial_103_29)"/>
<path fill-rule="evenodd" clip-rule="evenodd" d="M410.46 169.77C398.97 147.72 258.73 128.42 243.75 170.13C233 200.06 256.53 275.27 330.9 275.79C404.53 276.3 421.97 191.81 410.47 169.76L410.46 169.77ZM332.03 273.62C259.26 274.3 230.21 188.3 255.19 166.19C290.89 134.62 397.77 155.22 406.13 175.02C414.49 194.84 404.79 272.94 332.03 273.62Z" fill="url(#paint23_radial_103_29)"/>
<path style="mix-blend-mode:screen" fill-rule="evenodd" clip-rule="evenodd" d="M270.4 147.14C270.4 147.14 245.83 152.07 241.28 168.31C236.73 184.55 237.83 229.26 277.61 260.83C225.69 221.78 238.13 172.87 239.44 165.94C240.75 159.01 253.16 149.7 270.4 147.14Z" fill="url(#paint24_linear_103_29)"/>
<path fill-rule="evenodd" clip-rule="evenodd" d="M487.06 203.99C495.16 217.49 514.34 227.61 509.95 252.8C509.95 252.8 488.82 233.46 487.06 203.99Z" fill="url(#paint25_radial_103_29)"/>
<path fill-rule="evenodd" clip-rule="evenodd" d="M675.55 145.54C675.55 145.54 652.34 136.01 613.44 134.6C613.44 134.6 668.1 139.2 666.76 191.22C666.76 191.22 667.88 182.74 675.55 179.45V145.54Z" fill="url(#paint26_linear_103_29)"/>
<path fill-rule="evenodd" clip-rule="evenodd" d="M666.06 148.23C661.91 142.81 649.41 138.69 632.22 136.34C627.45 135.69 622.31 135.17 616.9 134.8C612.96 134.53 608.87 134.34 604.66 134.23C601.86 134.15 599 134.12 596.09 134.12C571.64 134.12 544.04 136.78 518.66 142.79C512.48 144.25 506.44 145.91 500.6 147.78C492.34 150.42 484.5 153.48 477.3 156.99C477.3 156.99 468.23 167.49 447.39 167.93C447.32 167.93 447.25 167.93 447.18 167.93V187.17C447.18 187.17 447.32 187.15 447.6 187.13C449.98 186.95 462.12 186.58 468.26 196.75C469.7 199.14 471.68 210.72 477.29 224.8C479.37 230.02 481.93 235.57 485.16 241.14C490.74 250.76 498.26 260.39 508.54 268.26C510.73 269.95 513.04 271.54 515.49 273.03C516.67 273.76 517.88 274.45 519.11 275.13C520.96 276.14 522.87 277.09 524.87 277.99C536.25 283.08 550.01 286.22 566.69 286.22C570.71 286.22 574.58 286.02 578.3 285.64C581.37 285.34 584.34 284.9 587.22 284.35C589.81 283.87 592.33 283.28 594.77 282.6C602.36 280.51 609.21 277.6 615.4 274.01C627.39 267.08 636.92 257.7 644.4 247.14C647.45 242.85 650.16 238.37 652.54 233.78C671.43 197.64 671.23 154.96 666.04 148.2L666.06 148.23ZM562.73 273.62C489.98 272.94 480.27 194.84 488.64 175.02C497 155.23 603.88 134.62 639.58 166.19C664.56 188.3 635.5 274.29 562.73 273.62Z" fill="url(#paint27_linear_103_29)"/>
<path style="mix-blend-mode:screen" opacity="0.5" fill-rule="evenodd" clip-rule="evenodd" d="M562.74 273.62C635.51 274.3 664.56 188.3 639.58 166.19C603.88 134.62 497 155.22 488.64 175.02C480.28 194.84 489.98 272.94 562.74 273.62Z" fill="url(#paint28_radial_103_29)"/>
<path fill-rule="evenodd" clip-rule="evenodd" d="M484.31 169.77C495.8 147.72 636.04 128.42 651.02 170.13C661.77 200.06 638.24 275.27 563.87 275.79C490.24 276.3 472.8 191.81 484.3 169.76L484.31 169.77ZM562.74 273.62C635.51 274.3 664.56 188.3 639.58 166.19C603.88 134.62 497 155.22 488.64 175.02C480.28 194.84 489.98 272.94 562.74 273.62Z" fill="url(#paint29_radial_103_29)"/>
<path style="mix-blend-mode:screen" fill-rule="evenodd" clip-rule="evenodd" d="M624.37 147.14C624.37 147.14 648.94 152.07 653.49 168.31C658.04 184.55 656.94 229.26 617.16 260.83C669.08 221.78 656.64 172.87 655.33 165.94C654.02 159.01 641.61 149.7 624.37 147.14Z" fill="url(#paint30_linear_103_29)"/>
<path style="mix-blend-mode:screen" fill-rule="evenodd" clip-rule="evenodd" d="M483.94 157C482.25 158.22 480.45 159.78 478.71 161.74C478.71 161.74 451.74 179.94 417.03 162.9C415.01 160.37 412.84 158.45 410.82 157C401.58 150.33 362.37 135.65 291.75 136.47L293.12 144.13C293.12 144.13 378.25 139.19 406.99 162.9C424.42 177.28 414.24 217.01 397.96 242.13C387.4 258.43 374.15 267.59 374.15 267.59L377.16 272.24C377.16 272.24 403.78 259.1 418.25 219.68C422.38 208.42 424.3 199.04 424.72 191.2C424.72 191.2 443.13 169.9 469.98 189.62C470.21 197.75 472.09 207.65 476.51 219.68C490.98 259.1 517.6 272.24 517.6 272.24L520.61 267.59C520.61 267.59 507.36 258.43 496.8 242.13C480.52 217.01 470.33 177.28 487.77 162.9C516.52 139.19 601.64 144.13 601.64 144.13L603.01 136.47C532.39 135.65 493.18 150.33 483.94 157Z" fill="url(#paint31_radial_103_29)"/>
<path style="mix-blend-mode:screen" opacity="0.5" fill-rule="evenodd" clip-rule="evenodd" d="M260.87 231.73C251.58 208.78 272.78 259.03 323.43 269.47C325.63 275.77 270.74 260.78 260.87 231.73Z" fill="url(#paint32_linear_103_29)"/>
<path style="mix-blend-mode:screen" opacity="0.5" fill-rule="evenodd" clip-rule="evenodd" d="M496.06 234.01C486.77 211.06 506.2 260.84 558.62 271.75C560.82 278.05 505.93 263.06 496.06 234.01Z" fill="url(#paint33_linear_103_29)"/>
<path style="mix-blend-mode:screen" opacity="0.5" fill-rule="evenodd" clip-rule="evenodd" d="M531.3 155.06C531.3 155.06 548 237.43 595.66 243.06C643.32 248.69 654.41 187.47 644.49 172.57C634.58 157.67 602.82 141.19 531.29 155.07L531.3 155.06Z" fill="url(#paint34_linear_103_29)"/>
<path style="mix-blend-mode:screen" opacity="0.5" fill-rule="evenodd" clip-rule="evenodd" d="M291.75 155.06C291.75 155.06 308.45 237.43 356.11 243.06C403.77 248.69 414.26 189.41 404.35 174.51C394.44 159.61 349.08 145.45 291.75 155.06Z" fill="url(#paint35_linear_103_29)"/>
<g style="mix-blend-mode:screen" opacity="0.5">
<path d="M526.93 151.63C520.29 153.19 514.12 154.99 508.66 156.95C503.08 165.13 497.51 173.33 492.02 181.58C496.74 180.69 499.11 180.28 503.83 179.52C504.97 177.45 505.55 176.41 506.73 174.32C511.43 173.45 513.78 173.06 518.48 172.36C518.79 174.32 518.96 175.32 519.34 177.31C524.08 176.72 526.45 176.46 531.19 176C529.32 167.89 527.65 159.86 526.92 151.64L526.93 151.63ZM511.41 166.05C513.66 162.11 514.82 160.12 517.16 156.09C517.18 159.5 517.26 161.24 517.58 164.77C515.11 165.25 513.87 165.51 511.41 166.05Z" fill="url(#paint36_linear_103_29)"/>
<path d="M585.65 164C585.54 161.85 584.87 159.92 583.65 158.22C582.43 156.53 580.81 155.37 578.78 154.78C580.47 154.33 581.79 153.39 582.71 151.93C583.64 150.48 584.03 148.66 583.89 146.47C583.86 146.11 583.83 145.76 583.79 145.43C578.96 145.34 574.07 145.43 569.2 145.69C569.73 145.69 570.28 145.69 570.98 145.67C571.88 145.67 572.55 145.9 572.99 146.34C573.43 146.79 573.66 147.48 573.67 148.4C573.67 149.28 573.46 149.94 573.02 150.37C572.58 150.79 571.88 151 570.96 151C569.36 151 568.56 151.02 566.96 151.05C567.01 148.95 567.04 147.89 567.09 145.8C563.72 146 560.35 146.28 557.01 146.62C556.27 155.85 555.7 165.1 555.26 174.36C562.77 174.07 566.54 174 574.06 174.03C577.94 174.06 580.91 173.22 582.92 171.49C584.92 169.76 585.83 167.27 585.66 163.99L585.65 164ZM573.81 163.94C573.34 164.35 572.61 164.55 571.62 164.55C569.63 164.55 568.64 164.55 566.65 164.59C566.69 162.46 566.72 161.39 566.76 159.26C568.71 159.23 569.68 159.22 571.63 159.21C573.52 159.21 574.48 160.13 574.5 161.94C574.5 162.87 574.28 163.53 573.81 163.94Z" fill="url(#paint37_linear_103_29)"/>
<path d="M642.62 168.49C638.1 167.33 635.84 166.8 631.33 165.83C631.11 166.82 630.6 167.52 629.79 167.94C628.98 168.37 627.95 168.47 626.71 168.26C624.88 167.93 623.3 167.02 621.95 165.47C620.61 163.92 619.7 161.98 619.18 159.66C618.65 157.34 618.7 155.59 619.35 154.45C619.98 153.31 621.13 152.96 622.83 153.4C623.98 153.69 625.1 154.28 626.19 155.14C627.28 155.99 628.26 157.03 629.1 158.25C633.44 159.39 635.61 160 639.96 161.35C639.2 159.98 638.33 158.66 637.36 157.37C629.5 152.71 619.75 149.58 608.99 147.7C608.87 148.03 608.76 148.36 608.66 148.72C607.97 151.22 607.9 154.3 608.5 157.84C609.11 161.4 610.26 164.65 612.07 167.58C613.87 170.51 616.2 172.88 619.08 174.7C621.95 176.52 625.22 177.62 628.84 178.11C631.95 178.53 634.63 178.39 636.85 177.72C639.05 177.05 640.68 175.93 641.67 174.36C642.66 172.78 642.98 170.85 642.61 168.5L642.62 168.49Z" fill="url(#paint38_linear_103_29)"/>
<path d="M513.52 203.46C512.42 201.59 510.82 200.19 508.7 199.24C506.59 198.31 504.1 197.95 501.2 198.13C496.58 198.43 494.25 198.6 489.63 198.95C488.72 206.25 488.61 214.16 489.32 221.49C493.97 221.76 496.29 221.88 500.93 222.11C503.84 222.25 506.36 221.84 508.49 220.84C510.64 219.83 512.26 218.37 513.4 216.47C514.54 214.56 515.11 212.38 515.14 209.96C515.16 207.51 514.62 205.34 513.52 203.47V203.46ZM504.5 214.06C503.35 214.99 501.8 215.42 499.82 215.39C498.99 215.39 498.57 215.37 497.72 215.36C497.61 211.14 497.64 209.03 497.85 204.81C498.68 204.78 499.1 204.77 499.94 204.73C501.92 204.66 503.45 205.08 504.58 205.99C505.71 206.91 506.25 208.25 506.23 210.01C506.2 211.77 505.64 213.12 504.49 214.06H504.5Z" fill="url(#paint39_linear_103_29)"/>
<path d="M545.08 216.75C545.06 215.2 545.05 214.42 545.05 212.87C548.53 212.87 550.27 212.89 553.75 212.89C553.75 210.27 553.75 208.97 553.77 206.35C550.3 206.37 548.56 206.38 545.08 206.41C545.1 205.07 545.11 204.39 545.12 203.04C549.07 202.99 551.04 202.96 554.99 202.93C555.02 200.15 555.04 198.76 555.09 195.98C547.69 196.1 543.99 196.19 536.58 196.42C536.21 205.42 536.17 214.43 536.45 223.43C543.88 223.61 547.6 223.68 555.03 223.76C554.99 220.98 554.97 219.59 554.95 216.81C551 216.79 549.02 216.78 545.07 216.75H545.08Z" fill="url(#paint40_linear_103_29)"/>
<path d="M589.4 206.73C589.4 205.19 589.38 204.42 589.37 202.88C593.75 202.92 595.95 202.95 600.34 203.01C600.29 200.29 600.26 198.93 600.16 196.21C592.32 196 588.4 195.93 580.56 195.88C580.64 205.2 580.66 214.51 580.59 223.83C584.09 223.8 585.83 223.79 589.33 223.75C589.4 219.57 589.41 217.47 589.42 213.28C592.58 213.28 594.16 213.28 597.33 213.26C597.33 210.67 597.33 209.37 597.31 206.77C594.15 206.75 592.57 206.74 589.4 206.73Z" fill="url(#paint41_linear_103_29)"/>
<path d="M636.62 208.16C636.66 210.35 636.67 211.44 636.65 213.63C639.45 213.61 640.85 213.6 643.65 213.57C642.39 214.98 640.74 215.72 638.71 215.76C636.57 215.79 635 215.35 633.99 214.39C632.97 213.44 632.47 211.98 632.45 210.02C632.43 208.32 632.86 206.98 633.75 206.03C634.64 205.07 635.92 204.63 637.61 204.68C638.5 204.71 639.28 204.86 639.92 205.15C640.55 205.43 641.06 205.82 641.42 206.3C645.12 206.39 646.96 206.44 650.66 206.54C650.13 204.04 648.61 201.99 646.2 200.37C643.78 198.75 640.75 197.78 637.12 197.57C634.27 197.39 631.83 197.79 629.78 198.76C627.73 199.75 626.18 201.22 625.11 203.18C624.04 205.13 623.52 207.41 623.54 209.97C623.56 212.53 624.11 214.81 625.21 216.78C626.31 218.75 627.9 220.24 629.98 221.25C632.08 222.26 634.55 222.68 637.43 222.54C640.69 222.39 643.42 221.61 645.63 220.26C646.12 219.96 646.59 219.65 647.03 219.33C648.57 215.69 649.85 212.03 650.87 208.41C645.16 208.3 642.31 208.25 636.59 208.17L636.62 208.16Z" fill="url(#paint42_linear_103_29)"/>
<path d="M494.29 234.2C494.05 234.17 493.83 234.14 493.62 234.12C493.95 234.77 494.29 235.41 494.65 236.06C494.53 235.51 494.42 234.91 494.29 234.21V234.2ZM505.13 235.48C503.74 235.33 503.05 235.25 501.67 235.1C502.07 237.58 502.3 238.82 502.8 241.3C500.51 240.96 499.12 240.74 497.21 240.44C497.75 241.32 498.31 242.18 498.89 243.03C500.28 243.26 501.52 243.47 503.33 243.76C503.9 246.32 504.21 247.61 504.89 250.17C506.21 250.44 506.87 250.56 508.19 250.81C506.67 244.67 506.05 241.61 505.13 235.47V235.48Z" fill="url(#paint43_linear_103_29)"/>
<path d="M528.98 237.63C527.59 237.53 526.91 237.48 525.52 237.38C526.16 244 526.59 247.31 527.64 253.93C528.96 254.11 529.62 254.19 530.94 254.35C529.96 247.66 529.57 244.32 528.98 237.64V237.63Z" fill="url(#paint44_linear_103_29)"/>
<path d="M561.23 239.04C559.84 239.01 559.14 239.01 557.75 238.97C557.89 243.9 557.98 246.37 558.18 251.31C558.21 252.02 558.07 252.56 557.77 252.95C557.47 253.34 557.02 253.53 556.42 253.5C555.8 253.47 555.32 253.24 554.97 252.81C554.63 252.38 554.42 251.78 554.37 251.03C553.03 250.97 552.36 250.94 551.01 250.87C551.12 252.6 551.69 253.98 552.73 254.99C553.76 256.02 555.05 256.57 556.62 256.63C558.17 256.71 559.39 256.28 560.28 255.36C561.17 254.43 561.6 253.11 561.55 251.39C561.4 246.44 561.33 243.97 561.23 239.02V239.04Z" fill="url(#paint45_linear_103_29)"/>
<path d="M593.21 238.76C591.54 238.82 590.71 238.84 589.04 238.89C586.43 242.1 585.13 243.72 582.58 246.93C582.67 243.77 582.71 242.19 582.77 239.03C581.39 239.06 580.7 239.06 579.31 239.08C579.21 246.14 579.14 249.67 578.98 256.74C580.3 256.71 580.96 256.7 582.28 256.66C582.39 253.51 582.44 251.94 582.53 248.8C584.88 251.88 586.04 253.41 588.26 256.41C589.93 256.33 590.76 256.28 592.43 256.18C589.89 252.83 588.56 251.12 585.84 247.67C588.75 244.1 590.24 242.31 593.23 238.75L593.21 238.76Z" fill="url(#paint46_linear_103_29)"/>
<path d="M612.97 251.71C613.74 246.08 614.05 243.27 614.55 237.64C613.16 237.74 612.48 237.78 611.09 237.87C610.55 244.62 610.19 247.99 609.3 254.74C612.79 254.36 614.53 254.14 618.02 253.66C618.2 252.62 618.28 252.09 618.45 251.05C616.26 251.33 615.17 251.45 612.98 251.7L612.97 251.71Z" fill="url(#paint47_linear_103_29)"/>
<path d="M634.94 235.88C634.64 238.02 634.37 239.79 634.1 241.44C635.61 239.51 637.03 237.52 638.36 235.51C637.11 235.64 636.34 235.73 634.95 235.88H634.94Z" fill="url(#paint48_linear_103_29)"/>
<path d="M545.31 273.46C544.66 272.8 543.79 272.39 542.7 272.24C541.46 272.06 540.83 271.98 539.58 271.79C539.64 272.11 539.69 272.42 539.74 272.71C540.4 272.89 541.07 273.08 541.74 273.24H541.76C542.11 273.29 542.43 273.34 542.9 273.41C543.33 273.47 543.7 273.59 544.02 273.78C544.64 273.92 545.26 274.06 545.9 274.19C545.74 273.93 545.55 273.69 545.33 273.46H545.31Z" fill="url(#paint49_linear_103_29)"/>
<path d="M564.6 274.74C563.84 274.23 563.01 273.96 562.1 273.91C561.2 273.87 560.4 274.07 559.69 274.51C559.18 274.83 558.76 275.24 558.43 275.77C558.97 275.8 559.52 275.83 560.07 275.85C560.16 275.77 560.26 275.69 560.37 275.62C560.88 275.29 561.48 275.14 562.16 275.17C562.84 275.2 563.45 275.41 564 275.8C564.06 275.84 564.12 275.88 564.18 275.94C564.74 275.94 565.29 275.94 565.84 275.94C565.49 275.46 565.07 275.07 564.6 274.75V274.74Z" fill="url(#paint50_linear_103_29)"/>
<path d="M581.69 274.04C580.44 274.1 579.81 274.12 578.57 274.17C578.57 274.41 578.55 274.64 578.54 274.86C579.95 274.64 581.34 274.39 582.71 274.11C582.4 274.04 582.06 274.03 581.68 274.04H581.69Z" fill="url(#paint51_linear_103_29)"/>
</g>
<g style="mix-blend-mode:screen" opacity="0.5">
<path d="M283.18 148.72C277.92 149.77 272.94 151.15 268.34 152.88C261.77 162.48 255.21 172.1 248.78 181.79C253.47 180.9 255.81 180.5 260.5 179.74C261.64 177.68 262.21 176.66 263.38 174.58C268.05 173.72 270.38 173.33 275.06 172.63C275.36 174.58 275.53 175.56 275.91 177.54C280.62 176.95 282.97 176.69 287.69 176.24C285.58 167.08 283.72 158.05 283.2 148.72H283.18ZM268.01 166.37C270.25 162.46 271.4 160.49 273.72 156.48C273.74 159.87 273.83 161.59 274.14 165.1C271.69 165.58 270.46 165.84 268.01 166.37Z" fill="url(#paint52_linear_103_29)"/>
<path d="M341.72 164.33C341.61 162.19 340.93 160.28 339.72 158.6C338.52 156.92 336.91 155.77 334.89 155.19C336.56 154.74 337.87 153.81 338.8 152.36C339.67 151 340.05 149.32 339.98 147.31C336.13 146.89 332.23 146.54 328.32 146.31C328.65 146.42 328.92 146.58 329.14 146.81C329.58 147.26 329.81 147.94 329.82 148.86C329.82 149.74 329.61 150.39 329.17 150.82C328.73 151.23 328.04 151.45 327.12 151.45C325.53 151.45 324.74 151.47 323.15 151.5C323.2 149.39 323.22 148.33 323.28 146.21C324.26 146.19 324.94 146.18 325.69 146.17C321.58 145.95 317.46 145.86 313.38 145.89C312.59 155.46 312 165.05 311.54 174.64C319.01 174.35 322.74 174.28 330.2 174.32C334.05 174.34 337 173.52 338.99 171.8C340.98 170.08 341.87 167.61 341.72 164.35V164.33ZM329.96 164.27C329.5 164.68 328.77 164.87 327.8 164.87C325.83 164.87 324.84 164.87 322.87 164.91C322.9 162.8 322.93 161.74 322.97 159.62C324.9 159.59 325.87 159.58 327.8 159.57C329.68 159.57 330.63 160.48 330.65 162.28C330.65 163.2 330.43 163.86 329.96 164.26V164.27Z" fill="url(#paint53_linear_103_29)"/>
<path d="M395.39 161.3C391.76 159.55 387.53 157.88 382.86 156.32C383.58 157 384.24 157.77 384.83 158.62C389.14 159.75 391.3 160.36 395.61 161.69C395.54 161.56 395.46 161.42 395.39 161.29V161.3ZM398.26 168.79C393.78 167.64 391.53 167.12 387.06 166.15C386.84 167.13 386.32 167.82 385.53 168.25C384.73 168.67 383.7 168.78 382.46 168.56C380.65 168.24 379.07 167.33 377.74 165.79C376.41 164.25 375.51 162.33 374.99 160.02C374.47 157.72 374.52 155.98 375.16 154.85C375.33 154.56 375.52 154.32 375.76 154.14C372.08 153.1 368.2 152.13 364.16 151.26C363.89 153.31 363.98 155.64 364.42 158.22C365.03 161.75 366.18 164.98 367.97 167.89C369.77 170.8 372.07 173.15 374.93 174.96C377.78 176.77 381.02 177.86 384.62 178.34C387.7 178.75 390.37 178.61 392.57 177.95C394.76 177.29 396.37 176.17 397.35 174.61C398.33 173.04 398.65 171.12 398.29 168.79H398.26Z" fill="url(#paint54_linear_103_29)"/>
<path d="M270.1 203.51C269.01 201.65 267.42 200.26 265.33 199.32C263.23 198.39 260.76 198.04 257.87 198.22C253.28 198.52 250.98 198.68 246.38 199.03C245.87 203.14 245.61 207.45 245.62 211.73C246.68 215.01 247.96 218.31 249.46 221.59C252.14 221.74 254.27 221.85 257.61 222.01C260.49 222.15 263 221.74 265.12 220.75C267.24 219.75 268.86 218.3 269.98 216.41C271.12 214.51 271.68 212.35 271.7 209.95C271.72 207.52 271.19 205.36 270.09 203.5L270.1 203.51ZM261.15 214.03C260.01 214.95 258.47 215.38 256.51 215.35C255.67 215.35 255.26 215.33 254.43 215.32C254.32 211.13 254.35 209.04 254.55 204.84C255.38 204.81 255.79 204.8 256.63 204.77C258.59 204.7 260.12 205.12 261.23 206.02C262.35 206.93 262.89 208.27 262.87 210.01C262.85 211.76 262.29 213.1 261.15 214.03Z" fill="url(#paint55_linear_103_29)"/>
<path d="M301.43 216.7C301.41 215.16 301.41 214.39 301.41 212.85C304.87 212.85 306.6 212.87 310.05 212.87C310.05 210.27 310.05 208.98 310.07 206.37C306.61 206.39 304.89 206.4 301.43 206.43C301.45 205.1 301.45 204.42 301.48 203.08C305.39 203.03 307.36 203.01 311.27 202.97C311.3 200.21 311.32 198.83 311.38 196.08C304.03 196.2 300.35 196.29 293 196.52C292.64 205.45 292.59 214.4 292.88 223.33C300.26 223.51 303.94 223.58 311.32 223.66C311.28 220.9 311.27 219.52 311.25 216.76C307.33 216.74 305.37 216.73 301.45 216.7H301.43Z" fill="url(#paint56_linear_103_29)"/>
<path d="M345.43 206.76C345.43 205.23 345.41 204.46 345.4 202.94C349.76 202.98 351.94 203.01 356.29 203.07C356.24 200.37 356.21 199.02 356.12 196.32C348.34 196.11 344.44 196.05 336.66 195.99C336.75 205.24 336.76 214.49 336.69 223.74C340.15 223.72 341.89 223.7 345.36 223.66C345.43 219.51 345.44 217.43 345.45 213.27C348.59 213.27 350.17 213.27 353.31 213.25C353.31 210.68 353.31 209.39 353.29 206.81C350.15 206.79 348.58 206.78 345.44 206.77L345.43 206.76Z" fill="url(#paint57_linear_103_29)"/>
<path d="M406.48 208.41C400.81 208.31 397.98 208.26 392.31 208.18C392.36 210.35 392.36 211.44 392.33 213.61C395.11 213.59 396.51 213.58 399.28 213.55C398.04 214.95 396.39 215.69 394.37 215.72C392.25 215.75 390.69 215.31 389.69 214.36C388.68 213.42 388.19 211.96 388.17 210.02C388.17 208.33 388.58 207 389.47 206.06C390.35 205.11 391.62 204.67 393.3 204.72C394.19 204.74 394.95 204.9 395.59 205.18C396.23 205.46 396.73 205.84 397.08 206.32C400.75 206.41 402.58 206.46 406.25 206.56C405.73 204.07 404.23 202.04 401.82 200.44C399.42 198.83 396.41 197.87 392.8 197.66C389.97 197.49 387.55 197.88 385.52 198.85C383.48 199.83 381.95 201.29 380.89 203.23C379.83 205.17 379.32 207.43 379.33 209.97C379.35 212.51 379.9 214.78 381 216.73C382.1 218.68 383.66 220.17 385.74 221.17C387.81 222.17 390.27 222.59 393.14 222.45C396.36 222.3 399.08 221.52 401.27 220.19C403.47 218.85 405.2 217.31 406.46 215.59C406.55 212.72 406.55 211.28 406.48 208.41Z" fill="url(#paint58_linear_103_29)"/>
<path d="M261.77 235.3C260.39 235.15 259.71 235.08 258.34 234.92C258.54 236.13 258.69 237.03 258.85 237.94C260.22 239.87 261.67 241.76 263.2 243.6C262.69 241.08 262.27 238.65 261.77 235.3Z" fill="url(#paint59_linear_103_29)"/>
<path d="M285.45 237.43C284.08 237.33 283.39 237.28 282.02 237.18C282.66 243.75 283.08 247.03 284.13 253.61C285.44 253.78 286.09 253.87 287.4 254.02C286.42 247.38 286.03 244.07 285.44 237.43H285.45Z" fill="url(#paint60_linear_103_29)"/>
<path d="M317.47 238.83C316.09 238.81 315.4 238.8 314.01 238.76C314.15 243.66 314.23 246.11 314.43 251.01C314.45 251.71 314.32 252.25 314.02 252.64C313.72 253.03 313.27 253.21 312.68 253.19C312.07 253.17 311.59 252.93 311.24 252.5C310.9 252.07 310.7 251.48 310.64 250.73C309.31 250.67 308.64 250.64 307.31 250.57C307.42 252.29 308 253.65 309.02 254.66C310.05 255.68 311.33 256.23 312.89 256.29C314.43 256.36 315.63 255.94 316.52 255.03C317.41 254.11 317.83 252.8 317.78 251.09C317.63 246.18 317.57 243.72 317.47 238.81V238.83Z" fill="url(#paint61_linear_103_29)"/>
<path d="M349.21 238.55C347.55 238.61 346.72 238.63 345.07 238.68C342.48 241.87 341.19 243.47 338.66 246.66C338.75 243.53 338.78 241.95 338.86 238.82C337.48 238.84 336.8 238.85 335.43 238.87C335.32 245.88 335.26 249.39 335.09 256.4C336.4 256.38 337.05 256.36 338.36 256.32C338.47 253.2 338.52 251.64 338.61 248.52C340.96 251.58 342.1 253.09 344.3 256.08C345.96 256.01 346.79 255.96 348.44 255.86C345.91 252.54 344.59 250.84 341.88 247.41C344.77 243.86 346.25 242.09 349.21 238.56V238.55Z" fill="url(#paint62_linear_103_29)"/>
<path d="M368.83 251.41C369.59 245.82 369.91 243.03 370.4 237.45C369.03 237.55 368.34 237.59 366.97 237.68C366.43 244.38 366.07 247.72 365.19 254.43C368.65 254.05 370.39 253.83 373.84 253.36C374.01 252.32 374.1 251.8 374.26 250.77C372.09 251.04 371 251.17 368.83 251.42V251.41Z" fill="url(#paint63_linear_103_29)"/>
<path d="M394.53 235.28C392.97 235.45 392.19 235.53 390.63 235.69C389.77 241.88 389.2 244.97 387.77 251.16C388.34 251.06 388.79 250.98 389.22 250.89C389.78 250.79 390.31 250.69 391.03 250.56C391.26 249.62 391.46 248.79 391.63 248.02C392.23 245.53 392.61 243.67 393.16 240.64C393.61 242.19 393.96 243.42 394.25 244.57C395.03 243.48 395.77 242.39 396.48 241.28C395.95 239.47 395.37 237.74 394.51 235.26L394.53 235.28Z" fill="url(#paint64_linear_103_29)"/>
<path d="M320.81 274.27C320.06 273.76 319.24 273.49 318.33 273.45C317.44 273.41 316.64 273.61 315.93 274.05C315.83 274.12 315.73 274.18 315.63 274.26C317.62 274.6 319.64 274.86 321.7 275.06C321.43 274.77 321.13 274.5 320.8 274.28L320.81 274.27Z" fill="url(#paint65_linear_103_29)"/>
<path d="M339.59 273.92C339.1 273.65 338.5 273.55 337.78 273.58C336.54 273.64 335.92 273.66 334.68 273.7C334.66 274.3 334.64 274.85 334.63 275.38C335.04 275.36 335.46 275.35 335.86 275.32C335.86 275.17 335.88 275.01 335.88 274.84C336.61 274.82 336.97 274.8 337.71 274.77C338.29 274.75 338.75 274.84 339.05 275.1C339.57 275.06 340.09 275.01 340.6 274.96C340.38 274.5 340.04 274.16 339.58 273.92H339.59Z" fill="url(#paint66_linear_103_29)"/>
</g>
<path style="mix-blend-mode:screen" d="M488.866 161.509C494.17 158.756 497.659 154.963 496.659 153.036C495.659 151.11 490.549 151.78 485.245 154.533C479.941 157.285 476.452 161.079 477.452 163.005C478.452 164.932 483.562 164.262 488.866 161.509Z" fill="url(#paint67_radial_103_29)"/>
<path style="mix-blend-mode:screen" d="M631.972 259.758C638.549 254.505 642.783 248.873 641.429 247.177C640.074 245.481 633.644 248.364 627.067 253.616C620.49 258.868 616.257 264.501 617.611 266.197C618.965 267.893 625.395 265.01 631.972 259.758Z" fill="url(#paint68_radial_103_29)"/>
<path style="mix-blend-mode:screen" d="M382.431 269.59C389.008 264.338 393.242 258.705 391.887 257.009C390.533 255.313 384.103 258.196 377.526 263.448C370.949 268.701 366.715 274.333 368.07 276.029C369.424 277.725 375.854 274.843 382.431 269.59Z" fill="url(#paint69_radial_103_29)"/>
<path style="mix-blend-mode:screen" d="M252.182 151.919C262.438 148.579 269.769 142.853 268.557 139.13C267.344 135.407 258.047 135.096 247.791 138.437C237.535 141.777 230.204 147.503 231.417 151.226C232.629 154.949 241.926 155.26 252.182 151.919Z" fill="url(#paint70_radial_103_29)"/>
<path style="mix-blend-mode:screen" d="M453.68 181.83C463.5 181.83 471.46 178.938 471.46 175.37C471.46 171.802 463.5 168.91 453.68 168.91C443.86 168.91 435.9 171.802 435.9 175.37C435.9 178.938 443.86 181.83 453.68 181.83Z" fill="url(#paint71_radial_103_29)"/>
<g style="mix-blend-mode:multiply" opacity="0.5">
<path fill-rule="evenodd" clip-rule="evenodd" d="M290.39 279.41C291.24 278.23 291.9 276.92 292.31 275.53C292.86 273.67 293.2 271.07 292.15 269.28C291.2 267.65 289.93 268.37 288.46 267.96C287.48 267.68 286.48 267.25 285.58 266.77C284.44 266.15 283.5 265.15 282.28 264.7C281.06 264.27 280.08 264.85 278.98 265.39C277.91 265.91 276.85 266.55 276.2 267.59C275.6 268.56 275.58 269.72 275.6 270.84C275.6 271.15 275.6 271.45 275.62 271.76L290.39 279.41Z" fill="url(#paint72_linear_103_29)"/>
<path fill-rule="evenodd" clip-rule="evenodd" d="M355.87 282.91C355.58 282.4 355.33 281.83 355.09 281.34C354.51 280.12 354 278.98 354.01 277.61C354.01 274.99 357.19 274.04 359.26 275.28C360.68 276.13 361.39 278.42 361.15 279.99C361.09 280.35 361 280.89 360.85 281.47L355.89 282.9L355.87 282.91Z" fill="url(#paint73_linear_103_29)"/>
<path fill-rule="evenodd" clip-rule="evenodd" d="M337.56 285.89C337.64 285.47 337.64 285.01 337.56 284.56C337.4 283.38 336.59 282.11 335.86 281.19C334.77 279.81 333.4 279.24 331.73 278.82C328.09 277.9 323.97 279.48 321.62 282.38C320.75 283.44 320.19 284.63 319.99 285.97C321.14 286.05 322.3 286.11 323.48 286.16C323.53 286 323.56 285.85 323.61 285.72C323.86 285.05 324.25 284.18 324.96 283.87C325.83 283.47 327.3 283.49 328.22 283.64C329.87 283.9 331.43 285 332.62 286.15L337.54 285.88L337.56 285.89Z" fill="url(#paint74_linear_103_29)"/>
<path fill-rule="evenodd" clip-rule="evenodd" d="M411.12 238.5C409.27 241.92 407.18 245.34 404.82 248.72C403.49 248.13 402.33 247.11 401.73 245.77C400.29 242.59 402.08 238.26 404.91 236.42C406.15 235.63 407.39 235.65 408.73 236.21C409.17 236.39 410.17 236.73 410.56 237.09C410.93 237.43 411.05 237.97 411.13 238.51L411.12 238.5Z" fill="url(#paint75_linear_103_29)"/>
<path fill-rule="evenodd" clip-rule="evenodd" d="M420.87 215.41C420.02 218.01 419.05 220.81 417.93 223.7C417.74 223.51 417.53 223.33 417.3 223.18C415.88 222.24 414.27 223.62 413.5 224.85C413.03 225.61 412.62 226.47 412.75 227.36C412.89 228.31 413.22 228.99 413.61 229.95C413.06 229.66 412.41 229.4 411.98 228.94C411.56 228.51 411.27 227.78 410.99 227.23C410.24 225.78 409.35 223.98 409.57 222.29C409.99 219.23 413.06 218.25 415.47 217.26C417.09 216.59 418.99 215.67 420.88 215.4L420.87 215.41Z" fill="url(#paint76_linear_103_29)"/>
<path fill-rule="evenodd" clip-rule="evenodd" d="M256.74 251.87C256.44 252.69 255.91 253.27 255.26 253.57C253.55 251.53 251.95 249.43 250.42 247.29C250.42 246.66 250.36 246.04 250.17 245.51C249.83 244.57 249.17 244.27 248.43 244.38C247.53 243.06 246.68 241.71 245.87 240.35C247.62 238.8 249.99 238.6 252.01 239.96C253.57 241.02 254.88 242.58 255.77 244.25C256.91 246.41 257.61 249.5 256.74 251.87Z" fill="url(#paint77_linear_103_29)"/>
<path fill-rule="evenodd" clip-rule="evenodd" d="M236.98 201.71C236.9 203.63 236.47 205.74 235.18 207.22C234.4 208.12 233.47 208.97 232.42 209.64C230.66 203.83 229.29 198.09 228.26 192.58C229.56 192.04 230.99 191.86 232.47 192.25C233.32 192.48 234.09 192.74 234.72 193.37C235.34 194 235.69 194.82 236.07 195.62C236.99 197.55 237.09 199.59 236.99 201.71H236.98Z" fill="url(#paint78_linear_103_29)"/>
<path fill-rule="evenodd" clip-rule="evenodd" d="M304.15 141.86C300.82 143.82 297.29 144.37 293.52 143.46C290.53 142.74 288.06 140.66 286.56 138.03C285.9 136.88 285.36 135.71 285.14 134.41C288.58 134.27 292.11 134.18 295.72 134.16C296.45 134.41 297.3 134.51 298 134.39C298.25 134.34 298.5 134.26 298.74 134.14C301.89 134.14 305.09 134.19 308.33 134.27C308.89 137.2 306.53 140.49 304.17 141.87L304.15 141.86Z" fill="url(#paint79_linear_103_29)"/>
<path fill-rule="evenodd" clip-rule="evenodd" d="M526.75 274.36C526.57 275.29 525.82 276.99 524.88 278.02C522.88 277.12 520.96 276.17 519.12 275.16C518.15 274.09 516.91 273.14 515.5 273.06C513.05 271.57 510.74 269.97 508.55 268.29C509.9 267.2 511.3 266.14 512.93 265.52C516.24 264.23 520.84 265 523.83 266.77C526.65 268.43 527.4 271.25 526.77 274.37L526.75 274.36Z" fill="url(#paint80_linear_103_29)"/>
<path fill-rule="evenodd" clip-rule="evenodd" d="M486.35 238.82C486.09 239.69 485.67 240.48 485.15 241.17C481.92 235.6 479.36 230.05 477.28 224.83C479.49 224.92 482.01 225.69 483.39 226.89C486.77 229.82 487.61 234.67 486.34 238.82H486.35Z" fill="url(#paint81_linear_103_29)"/>
<path fill-rule="evenodd" clip-rule="evenodd" d="M615.42 274.05C609.22 277.64 602.37 280.55 594.79 282.64C594.33 281.9 594.05 281.09 594.08 280.24C594.16 277.89 596.39 275.25 597.85 273.62C599.62 271.64 601.35 270.29 604.07 269.85C606.5 269.45 608.9 270.02 611.18 270.81C612.29 271.2 613.61 271.94 614.49 272.73C614.96 273.15 615.24 273.59 615.41 274.05H615.42Z" fill="url(#paint82_linear_103_29)"/>
<path fill-rule="evenodd" clip-rule="evenodd" d="M518.65 142.8C518.61 142.89 518.57 142.99 518.53 143.08C517.37 145.52 514.74 147.67 512.31 148.76C510.66 149.51 508.69 149.37 506.92 149.33C505.06 149.28 503.01 149.23 501.35 148.27C501.1 148.13 500.84 147.97 500.59 147.79C506.43 145.92 512.47 144.26 518.65 142.8Z" fill="url(#paint83_linear_103_29)"/>
<path fill-rule="evenodd" clip-rule="evenodd" d="M652.56 233.82C650.17 238.41 647.47 242.89 644.42 247.18L644.09 247.37C644.35 245.37 644.76 243.51 645.17 241.57C645.53 239.89 645.69 238.15 646.47 236.58C647.35 234.83 649.28 232.49 651.49 233.31C651.9 233.46 652.25 233.63 652.57 233.83L652.56 233.82Z" fill="url(#paint84_linear_103_29)"/>
<path fill-rule="evenodd" clip-rule="evenodd" d="M632.22 136.35C632.16 138.1 631.47 139.74 630.09 141.07C629.12 142 627.83 142.7 626.6 143.22C624.77 143.97 622.85 144.92 620.89 145.26C619.09 145.57 617.36 145.87 615.59 146.33C613.38 146.91 611.65 146.79 609.42 146.45C606.05 145.92 603.59 144.62 600.68 142.98C598.6 141.81 596.56 139.14 596.01 136.78C595.81 135.93 595.87 135.04 596.09 134.14C599 134.14 601.85 134.18 604.66 134.25C604.6 134.31 604.57 134.35 604.52 134.4C603.12 135.97 602.25 136.74 603.18 138.68C603.9 140.17 605.62 141.05 607.03 141.65C608.78 142.4 610.19 143.34 612.14 142.74C614.19 142.12 615.12 141.76 615.97 139.75C616.39 138.8 616.39 138.62 616.44 137.6C616.48 136.63 616.78 135.75 616.89 134.81C622.31 135.18 627.44 135.7 632.21 136.35H632.22Z" fill="url(#paint85_linear_103_29)"/>
<path fill-rule="evenodd" clip-rule="evenodd" d="M587.23 284.38C584.35 284.94 581.38 285.37 578.31 285.67C577.22 284.45 576.57 282.75 577.06 281.24C577.71 279.25 579.98 279.69 581.73 279.75C583.06 279.79 584.19 280.23 585.39 280.73C585.93 280.88 586.4 281.13 586.81 281.48C586.97 282.44 587.11 283.41 587.22 284.39L587.23 284.38Z" fill="url(#paint86_linear_103_29)"/>
</g>
<path style="mix-blend-mode:screen" opacity="0.5" d="M271.545 263.581C273.279 261.847 269.86 255.617 263.908 249.665C257.957 243.713 251.727 240.294 249.993 242.028C248.259 243.762 251.678 249.992 257.629 255.944C263.581 261.896 269.811 265.315 271.545 263.581Z" fill="url(#paint87_radial_103_29)"/>
<path style="mix-blend-mode:multiply" opacity="0.86" d="M359.01 336.48C448.822 336.48 521.63 327.351 521.63 316.09C521.63 304.829 448.822 295.7 359.01 295.7C269.197 295.7 196.39 304.829 196.39 316.09C196.39 327.351 269.197 336.48 359.01 336.48Z" fill="url(#paint88_radial_103_29)"/>
<path style="mix-blend-mode:multiply" opacity="0.86" d="M535.32 336.48C625.132 336.48 697.94 327.351 697.94 316.09C697.94 304.829 625.132 295.7 535.32 295.7C445.507 295.7 372.7 304.829 372.7 316.09C372.7 327.351 445.507 336.48 535.32 336.48Z" fill="url(#paint89_radial_103_29)"/>
<path style="mix-blend-mode:multiply" opacity="0.86" d="M747.52 332.87C821.443 332.87 881.37 325.357 881.37 316.09C881.37 306.823 821.443 299.31 747.52 299.31C673.597 299.31 613.67 306.823 613.67 316.09C613.67 325.357 673.597 332.87 747.52 332.87Z" fill="url(#paint90_radial_103_29)"/>
<path style="mix-blend-mode:multiply" opacity="0.5" d="M133.85 332.87C207.773 332.87 267.7 325.357 267.7 316.09C267.7 306.823 207.773 299.31 133.85 299.31C59.9267 299.31 0 306.823 0 316.09C0 325.357 59.9267 332.87 133.85 332.87Z" fill="url(#paint91_radial_103_29)"/>
</g>
<defs>
<radialGradient id="paint0_radial_103_29" cx="0" cy="0" r="1" gradientUnits="userSpaceOnUse" gradientTransform="translate(112.13 131.28) scale(134.89)">
<stop offset="0.02" stop-color="#6375FF"/>
<stop offset="0.21" stop-color="#6673FD"/>
<stop offset="0.37" stop-color="#716FF9"/>
<stop offset="0.53" stop-color="#8367F3"/>
<stop offset="0.68" stop-color="#9C5DE9"/>
<stop offset="0.82" stop-color="#BD50DE"/>
<stop offset="0.87" stop-color="#A86FE5"/>
<stop offset="0.97" stop-color="#74C0F9"/>
<stop offset="1" stop-color="#65D8FF"/>
</radialGradient>
<radialGradient id="paint1_radial_103_29" cx="0" cy="0" r="1" gradientUnits="userSpaceOnUse" gradientTransform="translate(155.9 312.96) scale(63.15 63.15)">
<stop offset="0.02" stop-color="#6375FF"/>
<stop offset="0.21" stop-color="#6673FD"/>
<stop offset="0.37" stop-color="#716FF9"/>
<stop offset="0.53" stop-color="#8367F3"/>
<stop offset="0.68" stop-color="#9C5DE9"/>
<stop offset="0.82" stop-color="#BD50DE"/>
<stop offset="0.87" stop-color="#A86FE5"/>
<stop offset="0.97" stop-color="#74C0F9"/>
<stop offset="1" stop-color="#65D8FF"/>
</radialGradient>
<radialGradient id="paint2_radial_103_29" cx="0" cy="0" r="1" gradientUnits="userSpaceOnUse" gradientTransform="translate(717.29 312.1) scale(86.44 86.44)">
<stop offset="0.02" stop-color="#6375FF"/>
<stop offset="0.21" stop-color="#6673FD"/>
<stop offset="0.37" stop-color="#716FF9"/>
<stop offset="0.53" stop-color="#8367F3"/>
<stop offset="0.68" stop-color="#9C5DE9"/>
<stop offset="0.82" stop-color="#BD50DE"/>
<stop offset="0.87" stop-color="#A86FE5"/>
<stop offset="0.97" stop-color="#74C0F9"/>
<stop offset="1" stop-color="#65D8FF"/>
</radialGradient>
<radialGradient id="paint3_radial_103_29" cx="0" cy="0" r="1" gradientUnits="userSpaceOnUse" gradientTransform="translate(711.45 275.98) scale(50.14 50.14)">
<stop offset="0.67" stop-color="#7745BA"/>
<stop offset="0.72" stop-color="#956EC9"/>
<stop offset="0.79" stop-color="#BAA1DC"/>
<stop offset="0.85" stop-color="#D8CAEB"/>
<stop offset="0.91" stop-color="#EDE7F6"/>
<stop offset="0.96" stop-color="#FAF8FC"/>
<stop offset="1" stop-color="white"/>
</radialGradient>
<radialGradient id="paint4_radial_103_29" cx="0" cy="0" r="1" gradientUnits="userSpaceOnUse" gradientTransform="translate(775.67 183.36) scale(134.89 134.89)">
<stop offset="0.02" stop-color="#6375FF"/>
<stop offset="0.21" stop-color="#6673FD"/>
<stop offset="0.37" stop-color="#716FF9"/>
<stop offset="0.53" stop-color="#8367F3"/>
<stop offset="0.68" stop-color="#9C5DE9"/>
<stop offset="0.82" stop-color="#BD50DE"/>
<stop offset="0.87" stop-color="#A86FE5"/>
<stop offset="0.97" stop-color="#74C0F9"/>
<stop offset="1" stop-color="#65D8FF"/>
</radialGradient>
<radialGradient id="paint5_radial_103_29" cx="0" cy="0" r="1" gradientUnits="userSpaceOnUse" gradientTransform="translate(178.6 109.93) scale(23.31 23.31)">
<stop offset="0.67" stop-color="#7745BA"/>
<stop offset="0.72" stop-color="#956EC9"/>
<stop offset="0.79" stop-color="#BAA1DC"/>
<stop offset="0.85" stop-color="#D8CAEB"/>
<stop offset="0.91" stop-color="#EDE7F6"/>
<stop offset="0.96" stop-color="#FAF8FC"/>
<stop offset="1" stop-color="white"/>
</radialGradient>
<radialGradient id="paint6_radial_103_29" cx="0" cy="0" r="1" gradientUnits="userSpaceOnUse" gradientTransform="translate(745.55 149.152) scale(42.22 37.5758)">
<stop offset="0.67" stop-color="#7745BA"/>
<stop offset="0.72" stop-color="#956EC9"/>
<stop offset="0.79" stop-color="#BAA1DC"/>
<stop offset="0.85" stop-color="#D8CAEB"/>
<stop offset="0.91" stop-color="#EDE7F6"/>
<stop offset="0.96" stop-color="#FAF8FC"/>
<stop offset="1" stop-color="white"/>
</radialGradient>
<radialGradient id="paint7_radial_103_29" cx="0" cy="0" r="1" gradientUnits="userSpaceOnUse" gradientTransform="translate(193.31 64.23) scale(47.91 47.91)">
<stop offset="0.02" stop-color="#A475FF"/>
<stop offset="0.3" stop-color="#A671FB"/>
<stop offset="0.54" stop-color="#AD66F2"/>
<stop offset="0.78" stop-color="#B954E2"/>
<stop offset="0.82" stop-color="#BD50DE"/>
<stop offset="0.87" stop-color="#A86FE5"/>
<stop offset="0.97" stop-color="#74C0F9"/>
<stop offset="1" stop-color="#65D8FF"/>
</radialGradient>
<radialGradient id="paint8_radial_103_29" cx="0" cy="0" r="1" gradientUnits="userSpaceOnUse" gradientTransform="translate(759.46 69.56) scale(84.27)">
<stop offset="0.02" stop-color="#A475FF"/>
<stop offset="0.3" stop-color="#A671FB"/>
<stop offset="0.54" stop-color="#AD66F2"/>
<stop offset="0.78" stop-color="#B954E2"/>
<stop offset="0.82" stop-color="#BD50DE"/>
<stop offset="0.87" stop-color="#A86FE5"/>
<stop offset="0.97" stop-color="#74C0F9"/>
<stop offset="1" stop-color="#65D8FF"/>
</radialGradient>
<radialGradient id="paint9_radial_103_29" cx="0" cy="0" r="1" gradientUnits="userSpaceOnUse" gradientTransform="translate(599.25 110.26) scale(84.27)">
<stop offset="0.02" stop-color="#7C84FF"/>
<stop offset="0.29" stop-color="#7D80FF"/>
<stop offset="0.52" stop-color="#8075FF"/>
<stop offset="0.74" stop-color="#8563FF"/>
<stop offset="0.77" stop-color="#8661FF"/>
<stop offset="0.84" stop-color="#7D80FF"/>
<stop offset="0.99" stop-color="#66D1FF"/>
<stop offset="1" stop-color="#65D8FF"/>
</radialGradient>
<radialGradient id="paint10_radial_103_29" cx="0" cy="0" r="1" gradientUnits="userSpaceOnUse" gradientTransform="translate(314.1 80.4499) scale(63.03)">
<stop offset="0.02" stop-color="#7C84FF"/>
<stop offset="0.29" stop-color="#7D80FF"/>
<stop offset="0.52" stop-color="#8075FF"/>
<stop offset="0.74" stop-color="#8563FF"/>
<stop offset="0.77" stop-color="#8661FF"/>
<stop offset="0.84" stop-color="#7D80FF"/>
<stop offset="0.99" stop-color="#66D1FF"/>
<stop offset="1" stop-color="#65D8FF"/>
</radialGradient>
<radialGradient id="paint11_radial_103_29" cx="0" cy="0" r="1" gradientUnits="userSpaceOnUse" gradientTransform="translate(654.91 34.9999) scale(40.8 40.8)">
<stop offset="0.02" stop-color="#A475FF"/>
<stop offset="0.3" stop-color="#A671FB"/>
<stop offset="0.54" stop-color="#AD66F2"/>
<stop offset="0.78" stop-color="#B954E2"/>
<stop offset="0.82" stop-color="#BD50DE"/>
<stop offset="0.87" stop-color="#A86FE5"/>
<stop offset="0.97" stop-color="#74C0F9"/>
<stop offset="1" stop-color="#65D8FF"/>
</radialGradient>
<radialGradient id="paint12_radial_103_29" cx="0" cy="0" r="1" gradientUnits="userSpaceOnUse" gradientTransform="translate(288.2 8.13) scale(18.61 18.61)">
<stop offset="0.02" stop-color="#A475FF"/>
<stop offset="0.3" stop-color="#A671FB"/>
<stop offset="0.54" stop-color="#AD66F2"/>
<stop offset="0.78" stop-color="#B954E2"/>
<stop offset="0.82" stop-color="#BD50DE"/>
<stop offset="0.87" stop-color="#A86FE5"/>
<stop offset="0.97" stop-color="#74C0F9"/>
<stop offset="1" stop-color="#65D8FF"/>
</radialGradient>
<radialGradient id="paint13_radial_103_29" cx="0" cy="0" r="1" gradientUnits="userSpaceOnUse" gradientTransform="translate(584.82 10.2399) scale(9.31 9.31)">
<stop offset="0.02" stop-color="#A475FF"/>
<stop offset="0.3" stop-color="#A671FB"/>
<stop offset="0.54" stop-color="#AD66F2"/>
<stop offset="0.78" stop-color="#B954E2"/>
<stop offset="0.82" stop-color="#BD50DE"/>
<stop offset="0.87" stop-color="#A86FE5"/>
<stop offset="0.97" stop-color="#74C0F9"/>
<stop offset="1" stop-color="#65D8FF"/>
</radialGradient>
<linearGradient id="paint14_linear_103_29" x1="219.21" y1="151.82" x2="675.55" y2="151.82" gradientUnits="userSpaceOnUse">
<stop stop-color="#FF50FF"/>
<stop offset="0.24" stop-color="#DF6CFF"/>
<stop offset="0.75" stop-color="#8EB3FF"/>
<stop offset="1" stop-color="#65D8FF"/>
</linearGradient>
<linearGradient id="paint15_linear_103_29" x1="582.86" y1="269.46" x2="582.86" y2="145.54" gradientUnits="userSpaceOnUse">
<stop offset="0.02" stop-color="#4A2B75"/>
<stop offset="1" stop-color="#320045"/>
</linearGradient>
<linearGradient id="paint16_linear_103_29" x1="582.86" y1="269.46" x2="582.86" y2="178.39" gradientUnits="userSpaceOnUse">
<stop stop-color="#C06DA9"/>
<stop offset="0.94" stop-color="#F0D6FF"/>
</linearGradient>
<linearGradient id="paint17_linear_103_29" x1="311.9" y1="269.46" x2="311.9" y2="145.54" gradientUnits="userSpaceOnUse">
<stop offset="0.02" stop-color="#4A2B75"/>
<stop offset="1" stop-color="#320045"/>
</linearGradient>
<linearGradient id="paint18_linear_103_29" x1="311.9" y1="269.46" x2="311.9" y2="-3.17012e-05" gradientUnits="userSpaceOnUse">
<stop stop-color="#C06DA9"/>
<stop offset="0.94" stop-color="#F0D6FF"/>
</linearGradient>
<radialGradient id="paint19_radial_103_29" cx="0" cy="0" r="1" gradientUnits="userSpaceOnUse" gradientTransform="translate(395.94 228.39) scale(19.16 19.16)">
<stop stop-color="#FF224D"/>
<stop offset="0.97" stop-color="#C3005A"/>
</radialGradient>
<linearGradient id="paint20_linear_103_29" x1="250.27" y1="191.21" x2="250.27" y2="134.59" gradientUnits="userSpaceOnUse">
<stop offset="0.02" stop-color="#651670"/>
<stop offset="1" stop-color="#320045"/>
</linearGradient>
<linearGradient id="paint21_linear_103_29" x1="336.64" y1="286.25" x2="336.64" y2="134.13" gradientUnits="userSpaceOnUse">
<stop offset="0.02" stop-color="#651670"/>
<stop offset="1" stop-color="#320045"/>
</linearGradient>
<radialGradient id="paint22_radial_103_29" cx="0" cy="0" r="1" gradientUnits="userSpaceOnUse" gradientTransform="translate(328.06 210.055) scale(100.56 74.4144)">
<stop offset="0.69"/>
<stop offset="0.77" stop-color="#3B3138"/>
<stop offset="0.88" stop-color="#877081"/>
<stop offset="0.96" stop-color="#B697AE"/>
<stop offset="1" stop-color="#C9A7C0"/>
</radialGradient>
<radialGradient id="paint23_radial_103_29" cx="0" cy="0" r="1" gradientUnits="userSpaceOnUse" gradientTransform="translate(327.49 210.67) scale(76.4 76.4)">
<stop stop-color="#FF224D"/>
<stop offset="0.97" stop-color="#C3005A"/>
</radialGradient>
<linearGradient id="paint24_linear_103_29" x1="240.81" y1="211.55" x2="283.02" y2="201.81" gradientUnits="userSpaceOnUse">
<stop stop-color="#454F7C"/>
<stop offset="0.04" stop-color="#404A74"/>
<stop offset="0.24" stop-color="#292F4A"/>
<stop offset="0.45" stop-color="#171A2A"/>
<stop offset="0.64" stop-color="#0A0C12"/>
<stop offset="0.83" stop-color="#020304"/>
<stop offset="0.99"/>
</linearGradient>
<radialGradient id="paint25_radial_103_29" cx="0" cy="0" r="1" gradientUnits="userSpaceOnUse" gradientTransform="translate(498.83 0.500256) rotate(180) scale(19.16 19.16)">
<stop stop-color="#FF224D"/>
<stop offset="0.97" stop-color="#C3005A"/>
</radialGradient>
<linearGradient id="paint26_linear_103_29" x1="644.5" y1="191.21" x2="644.5" y2="134.59" gradientUnits="userSpaceOnUse">
<stop offset="0.02" stop-color="#651670"/>
<stop offset="1" stop-color="#320045"/>
</linearGradient>
<linearGradient id="paint27_linear_103_29" x1="558.12" y1="286.25" x2="558.12" y2="134.13" gradientUnits="userSpaceOnUse">
<stop offset="0.02" stop-color="#651670"/>
<stop offset="1" stop-color="#320045"/>
</linearGradient>
<radialGradient id="paint28_radial_103_29" cx="0" cy="0" r="1" gradientUnits="userSpaceOnUse" gradientTransform="translate(566.7 55.7501) rotate(-180) scale(100.56 74.4144)">
<stop offset="0.69"/>
<stop offset="0.77" stop-color="#3B3138"/>
<stop offset="0.88" stop-color="#877081"/>
<stop offset="0.96" stop-color="#B697AE"/>
<stop offset="1" stop-color="#C9A7C0"/>
</radialGradient>
<radialGradient id="paint29_radial_103_29" cx="0" cy="0" r="1" gradientUnits="userSpaceOnUse" gradientTransform="translate(567.27 210.67) rotate(180) scale(76.4 76.4)">
<stop stop-color="#FF224D"/>
<stop offset="0.97" stop-color="#C3005A"/>
</radialGradient>
<linearGradient id="paint30_linear_103_29" x1="653.95" y1="211.55" x2="611.74" y2="201.81" gradientUnits="userSpaceOnUse">
<stop stop-color="#454F7C"/>
<stop offset="0.04" stop-color="#404A74"/>
<stop offset="0.24" stop-color="#292F4A"/>
<stop offset="0.45" stop-color="#171A2A"/>
<stop offset="0.64" stop-color="#0A0C12"/>
<stop offset="0.83" stop-color="#020304"/>
<stop offset="0.99"/>
</linearGradient>
<radialGradient id="paint31_radial_103_29" cx="0" cy="0" r="1" gradientUnits="userSpaceOnUse" gradientTransform="translate(446.61 161.908) scale(154.97 123.976)">
<stop stop-color="#5E4F5E"/>
<stop offset="0.12" stop-color="#4A3E4A"/>
<stop offset="0.36" stop-color="#2A232A"/>
<stop offset="0.59" stop-color="#120F12"/>
<stop offset="0.8" stop-color="#040404"/>
<stop offset="0.99"/>
</radialGradient>
<linearGradient id="paint32_linear_103_29" x1="258.74" y1="248.34" x2="323.49" y2="248.34" gradientUnits="userSpaceOnUse">
<stop stop-color="#C9A7C0"/>
<stop offset="0.17" stop-color="#B696B1"/>
<stop offset="0.51" stop-color="#876A8A"/>
<stop offset="0.98" stop-color="#3B244C"/>
<stop offset="1" stop-color="#39224A"/>
</linearGradient>
<linearGradient id="paint33_linear_103_29" x1="493.82" y1="250.6" x2="558.69" y2="250.6" gradientUnits="userSpaceOnUse">
<stop stop-color="#C9A7C0"/>
<stop offset="0.17" stop-color="#B696B1"/>
<stop offset="0.51" stop-color="#876A8A"/>
<stop offset="0.98" stop-color="#3B244C"/>
<stop offset="1" stop-color="#39224A"/>
</linearGradient>
<linearGradient id="paint34_linear_103_29" x1="589.57" y1="243.42" x2="589.57" y2="149.83" gradientUnits="userSpaceOnUse">
<stop stop-color="#39224A"/>
<stop offset="0.02" stop-color="#3B244C"/>
<stop offset="0.49" stop-color="#876A8A"/>
<stop offset="0.83" stop-color="#B696B1"/>
<stop offset="1" stop-color="#C9A7C0"/>
</linearGradient>
<linearGradient id="paint35_linear_103_29" x1="349.75" y1="243.43" x2="349.75" y2="151.92" gradientUnits="userSpaceOnUse">
<stop stop-color="#39224A"/>
<stop offset="0.02" stop-color="#3B244C"/>
<stop offset="0.49" stop-color="#876A8A"/>
<stop offset="0.83" stop-color="#B696B1"/>
<stop offset="1" stop-color="#C9A7C0"/>
</linearGradient>
<linearGradient id="paint36_linear_103_29" x1="260.61" y1="230.25" x2="628.93" y2="139.09" gradientUnits="userSpaceOnUse">
<stop stop-color="#39224A"/>
<stop offset="0.02" stop-color="#3B244C"/>
<stop offset="0.49" stop-color="#876A8A"/>
<stop offset="0.83" stop-color="#B696B1"/>
<stop offset="1" stop-color="#C9A7C0"/>
</linearGradient>
<linearGradient id="paint37_linear_103_29" x1="261.98" y1="235.79" x2="630.3" y2="144.64" gradientUnits="userSpaceOnUse">
<stop stop-color="#39224A"/>
<stop offset="0.02" stop-color="#3B244C"/>
<stop offset="0.49" stop-color="#876A8A"/>
<stop offset="0.83" stop-color="#B696B1"/>
<stop offset="1" stop-color="#C9A7C0"/>
</linearGradient>
<linearGradient id="paint38_linear_103_29" x1="265.77" y1="251.1" x2="634.09" y2="159.95" gradientUnits="userSpaceOnUse">
<stop stop-color="#39224A"/>
<stop offset="0.02" stop-color="#3B244C"/>
<stop offset="0.49" stop-color="#876A8A"/>
<stop offset="0.83" stop-color="#B696B1"/>
<stop offset="1" stop-color="#C9A7C0"/>
</linearGradient>
<linearGradient id="paint39_linear_103_29" x1="269.66" y1="266.79" x2="637.97" y2="175.64" gradientUnits="userSpaceOnUse">
<stop stop-color="#39224A"/>
<stop offset="0.02" stop-color="#3B244C"/>
<stop offset="0.49" stop-color="#876A8A"/>
<stop offset="0.83" stop-color="#B696B1"/>
<stop offset="1" stop-color="#C9A7C0"/>
</linearGradient>
<linearGradient id="paint40_linear_103_29" x1="272.37" y1="277.75" x2="640.68" y2="186.6" gradientUnits="userSpaceOnUse">
<stop stop-color="#39224A"/>
<stop offset="0.02" stop-color="#3B244C"/>
<stop offset="0.49" stop-color="#876A8A"/>
<stop offset="0.83" stop-color="#B696B1"/>
<stop offset="1" stop-color="#C9A7C0"/>
</linearGradient>
<linearGradient id="paint41_linear_103_29" x1="274.559" y1="286.63" x2="642.88" y2="195.47" gradientUnits="userSpaceOnUse">
<stop stop-color="#39224A"/>
<stop offset="0.02" stop-color="#3B244C"/>
<stop offset="0.49" stop-color="#876A8A"/>
<stop offset="0.83" stop-color="#B696B1"/>
<stop offset="1" stop-color="#C9A7C0"/>
</linearGradient>
<linearGradient id="paint42_linear_103_29" x1="277.59" y1="298.85" x2="645.9" y2="207.69" gradientUnits="userSpaceOnUse">
<stop stop-color="#39224A"/>
<stop offset="0.02" stop-color="#3B244C"/>
<stop offset="0.49" stop-color="#876A8A"/>
<stop offset="0.83" stop-color="#B696B1"/>
<stop offset="1" stop-color="#C9A7C0"/>
</linearGradient>
<linearGradient id="paint43_linear_103_29" x1="277.33" y1="297.8" x2="645.64" y2="206.64" gradientUnits="userSpaceOnUse">
<stop stop-color="#39224A"/>
<stop offset="0.02" stop-color="#3B244C"/>
<stop offset="0.49" stop-color="#876A8A"/>
<stop offset="0.83" stop-color="#B696B1"/>
<stop offset="1" stop-color="#C9A7C0"/>
</linearGradient>
<linearGradient id="paint44_linear_103_29" x1="279.701" y1="307.37" x2="648.01" y2="216.21" gradientUnits="userSpaceOnUse">
<stop stop-color="#39224A"/>
<stop offset="0.02" stop-color="#3B244C"/>
<stop offset="0.49" stop-color="#876A8A"/>
<stop offset="0.83" stop-color="#B696B1"/>
<stop offset="1" stop-color="#C9A7C0"/>
</linearGradient>
<linearGradient id="paint45_linear_103_29" x1="281.85" y1="316.08" x2="650.17" y2="224.93" gradientUnits="userSpaceOnUse">
<stop stop-color="#39224A"/>
<stop offset="0.02" stop-color="#3B244C"/>
<stop offset="0.49" stop-color="#876A8A"/>
<stop offset="0.83" stop-color="#B696B1"/>
<stop offset="1" stop-color="#C9A7C0"/>
</linearGradient>
<linearGradient id="paint46_linear_103_29" x1="283.44" y1="322.48" x2="651.75" y2="231.33" gradientUnits="userSpaceOnUse">
<stop stop-color="#39224A"/>
<stop offset="0.02" stop-color="#3B244C"/>
<stop offset="0.49" stop-color="#876A8A"/>
<stop offset="0.83" stop-color="#B696B1"/>
<stop offset="1" stop-color="#C9A7C0"/>
</linearGradient>
<linearGradient id="paint47_linear_103_29" x1="284.659" y1="327.42" x2="652.98" y2="236.259" gradientUnits="userSpaceOnUse">
<stop stop-color="#39224A"/>
<stop offset="0.02" stop-color="#3B244C"/>
<stop offset="0.49" stop-color="#876A8A"/>
<stop offset="0.83" stop-color="#B696B1"/>
<stop offset="1" stop-color="#C9A7C0"/>
</linearGradient>
<linearGradient id="paint48_linear_103_29" x1="284.149" y1="325.37" x2="652.47" y2="234.22" gradientUnits="userSpaceOnUse">
<stop stop-color="#39224A"/>
<stop offset="0.02" stop-color="#3B244C"/>
<stop offset="0.49" stop-color="#876A8A"/>
<stop offset="0.83" stop-color="#B696B1"/>
<stop offset="1" stop-color="#C9A7C0"/>
</linearGradient>
<linearGradient id="paint49_linear_103_29" x1="286.86" y1="336.32" x2="655.18" y2="245.159" gradientUnits="userSpaceOnUse">
<stop stop-color="#39224A"/>
<stop offset="0.02" stop-color="#3B244C"/>
<stop offset="0.49" stop-color="#876A8A"/>
<stop offset="0.83" stop-color="#B696B1"/>
<stop offset="1" stop-color="#C9A7C0"/>
</linearGradient>
<linearGradient id="paint50_linear_103_29" x1="288.519" y1="343" x2="656.83" y2="251.839" gradientUnits="userSpaceOnUse">
<stop stop-color="#39224A"/>
<stop offset="0.02" stop-color="#3B244C"/>
<stop offset="0.49" stop-color="#876A8A"/>
<stop offset="0.83" stop-color="#B696B1"/>
<stop offset="1" stop-color="#C9A7C0"/>
</linearGradient>
<linearGradient id="paint51_linear_103_29" x1="289.317" y1="346.228" x2="657.629" y2="255.074" gradientUnits="userSpaceOnUse">
<stop stop-color="#39224A"/>
<stop offset="0.02" stop-color="#3B244C"/>
<stop offset="0.49" stop-color="#876A8A"/>
<stop offset="0.83" stop-color="#B696B1"/>
<stop offset="1" stop-color="#C9A7C0"/>
</linearGradient>
<linearGradient id="paint52_linear_103_29" x1="246.23" y1="172.12" x2="614.54" y2="80.9699" gradientUnits="userSpaceOnUse">
<stop stop-color="#39224A"/>
<stop offset="0.02" stop-color="#3B244C"/>
<stop offset="0.49" stop-color="#876A8A"/>
<stop offset="0.83" stop-color="#B696B1"/>
<stop offset="1" stop-color="#C9A7C0"/>
</linearGradient>
<linearGradient id="paint53_linear_103_29" x1="247.86" y1="178.72" x2="616.17" y2="87.5599" gradientUnits="userSpaceOnUse">
<stop stop-color="#39224A"/>
<stop offset="0.02" stop-color="#3B244C"/>
<stop offset="0.49" stop-color="#876A8A"/>
<stop offset="0.83" stop-color="#B696B1"/>
<stop offset="1" stop-color="#C9A7C0"/>
</linearGradient>
<linearGradient id="paint54_linear_103_29" x1="252.1" y1="195.86" x2="620.41" y2="104.7" gradientUnits="userSpaceOnUse">
<stop stop-color="#39224A"/>
<stop offset="0.02" stop-color="#3B244C"/>
<stop offset="0.49" stop-color="#876A8A"/>
<stop offset="0.83" stop-color="#B696B1"/>
<stop offset="1" stop-color="#C9A7C0"/>
</linearGradient>
<linearGradient id="paint55_linear_103_29" x1="255.61" y1="210.05" x2="623.93" y2="118.9" gradientUnits="userSpaceOnUse">
<stop stop-color="#39224A"/>
<stop offset="0.02" stop-color="#3B244C"/>
<stop offset="0.49" stop-color="#876A8A"/>
<stop offset="0.83" stop-color="#B696B1"/>
<stop offset="1" stop-color="#C9A7C0"/>
</linearGradient>
<linearGradient id="paint56_linear_103_29" x1="258.31" y1="220.94" x2="626.62" y2="129.78" gradientUnits="userSpaceOnUse">
<stop stop-color="#39224A"/>
<stop offset="0.02" stop-color="#3B244C"/>
<stop offset="0.49" stop-color="#876A8A"/>
<stop offset="0.83" stop-color="#B696B1"/>
<stop offset="1" stop-color="#C9A7C0"/>
</linearGradient>
<linearGradient id="paint57_linear_103_29" x1="260.49" y1="229.74" x2="628.8" y2="138.59" gradientUnits="userSpaceOnUse">
<stop stop-color="#39224A"/>
<stop offset="0.02" stop-color="#3B244C"/>
<stop offset="0.49" stop-color="#876A8A"/>
<stop offset="0.83" stop-color="#B696B1"/>
<stop offset="1" stop-color="#C9A7C0"/>
</linearGradient>
<linearGradient id="paint58_linear_103_29" x1="263.49" y1="241.88" x2="631.8" y2="150.72" gradientUnits="userSpaceOnUse">
<stop stop-color="#39224A"/>
<stop offset="0.02" stop-color="#3B244C"/>
<stop offset="0.49" stop-color="#876A8A"/>
<stop offset="0.83" stop-color="#B696B1"/>
<stop offset="1" stop-color="#C9A7C0"/>
</linearGradient>
<linearGradient id="paint59_linear_103_29" x1="262.72" y1="238.77" x2="631.041" y2="147.619" gradientUnits="userSpaceOnUse">
<stop stop-color="#39224A"/>
<stop offset="0.02" stop-color="#3B244C"/>
<stop offset="0.49" stop-color="#876A8A"/>
<stop offset="0.83" stop-color="#B696B1"/>
<stop offset="1" stop-color="#C9A7C0"/>
</linearGradient>
<linearGradient id="paint60_linear_103_29" x1="265.58" y1="250.33" x2="633.9" y2="159.18" gradientUnits="userSpaceOnUse">
<stop stop-color="#39224A"/>
<stop offset="0.02" stop-color="#3B244C"/>
<stop offset="0.49" stop-color="#876A8A"/>
<stop offset="0.83" stop-color="#B696B1"/>
<stop offset="1" stop-color="#C9A7C0"/>
</linearGradient>
<linearGradient id="paint61_linear_103_29" x1="267.72" y1="258.99" x2="636.04" y2="167.83" gradientUnits="userSpaceOnUse">
<stop stop-color="#39224A"/>
<stop offset="0.02" stop-color="#3B244C"/>
<stop offset="0.49" stop-color="#876A8A"/>
<stop offset="0.83" stop-color="#B696B1"/>
<stop offset="1" stop-color="#C9A7C0"/>
</linearGradient>
<linearGradient id="paint62_linear_103_29" x1="269.3" y1="265.34" x2="637.61" y2="174.19" gradientUnits="userSpaceOnUse">
<stop stop-color="#39224A"/>
<stop offset="0.02" stop-color="#3B244C"/>
<stop offset="0.49" stop-color="#876A8A"/>
<stop offset="0.83" stop-color="#B696B1"/>
<stop offset="1" stop-color="#C9A7C0"/>
</linearGradient>
<linearGradient id="paint63_linear_103_29" x1="270.51" y1="270.24" x2="638.82" y2="179.08" gradientUnits="userSpaceOnUse">
<stop stop-color="#39224A"/>
<stop offset="0.02" stop-color="#3B244C"/>
<stop offset="0.49" stop-color="#876A8A"/>
<stop offset="0.83" stop-color="#B696B1"/>
<stop offset="1" stop-color="#C9A7C0"/>
</linearGradient>
<linearGradient id="paint64_linear_103_29" x1="271.13" y1="272.76" x2="639.451" y2="181.609" gradientUnits="userSpaceOnUse">
<stop stop-color="#39224A"/>
<stop offset="0.02" stop-color="#3B244C"/>
<stop offset="0.49" stop-color="#876A8A"/>
<stop offset="0.83" stop-color="#B696B1"/>
<stop offset="1" stop-color="#C9A7C0"/>
</linearGradient>
<linearGradient id="paint65_linear_103_29" x1="274.28" y1="285.48" x2="642.59" y2="194.319" gradientUnits="userSpaceOnUse">
<stop stop-color="#39224A"/>
<stop offset="0.02" stop-color="#3B244C"/>
<stop offset="0.49" stop-color="#876A8A"/>
<stop offset="0.83" stop-color="#B696B1"/>
<stop offset="1" stop-color="#C9A7C0"/>
</linearGradient>
<linearGradient id="paint66_linear_103_29" x1="275.34" y1="289.75" x2="643.65" y2="198.601" gradientUnits="userSpaceOnUse">
<stop stop-color="#39224A"/>
<stop offset="0.02" stop-color="#3B244C"/>
<stop offset="0.49" stop-color="#876A8A"/>
<stop offset="0.83" stop-color="#B696B1"/>
<stop offset="1" stop-color="#C9A7C0"/>
</linearGradient>
<radialGradient id="paint67_radial_103_29" cx="0" cy="0" r="1" gradientUnits="userSpaceOnUse" gradientTransform="translate(486.849 157.623) rotate(-27.43) scale(10.82 3.8952)">
<stop offset="0.66" stop-color="#C9A7C0"/>
<stop offset="0.7" stop-color="#B697AE"/>
<stop offset="0.78" stop-color="#877081"/>
<stop offset="0.9" stop-color="#3B3138"/>
<stop offset="0.99"/>
</radialGradient>
<radialGradient id="paint68_radial_103_29" cx="0" cy="0" r="1" gradientUnits="userSpaceOnUse" gradientTransform="translate(629.249 254.599) rotate(-38.61) scale(15.2562 3.89521)">
<stop offset="0.66" stop-color="#6086C0"/>
<stop offset="0.7" stop-color="#5679AD"/>
<stop offset="0.79" stop-color="#3F587E"/>
<stop offset="0.91" stop-color="#192332"/>
<stop offset="0.99"/>
</radialGradient>
<radialGradient id="paint69_radial_103_29" cx="0" cy="0" r="1" gradientUnits="userSpaceOnUse" gradientTransform="translate(380.303 265.607) rotate(-38.61) scale(15.2562 3.89519)">
<stop offset="0.66" stop-color="#6086C0"/>
<stop offset="0.7" stop-color="#5679AD"/>
<stop offset="0.79" stop-color="#3F587E"/>
<stop offset="0.91" stop-color="#192332"/>
<stop offset="0.99"/>
</radialGradient>
<radialGradient id="paint70_radial_103_29" cx="0" cy="0" r="1" gradientUnits="userSpaceOnUse" gradientTransform="translate(250.194 145.814) rotate(-18.04) scale(19.53 7.0308)">
<stop offset="0.66" stop-color="#6086C0"/>
<stop offset="0.7" stop-color="#5679AD"/>
<stop offset="0.79" stop-color="#3F587E"/>
<stop offset="0.91" stop-color="#192332"/>
<stop offset="0.99"/>
</radialGradient>
<radialGradient id="paint71_radial_103_29" cx="0" cy="0" r="1" gradientUnits="userSpaceOnUse" gradientTransform="translate(453.67 174.94) scale(17.78 6.4008)">
<stop offset="0.66" stop-color="#C9A7C0"/>
<stop offset="0.7" stop-color="#B697AE"/>
<stop offset="0.78" stop-color="#877081"/>
<stop offset="0.9" stop-color="#3B3138"/>
<stop offset="0.99"/>
</radialGradient>
<linearGradient id="paint72_linear_103_29" x1="284.21" y1="279.41" x2="284.21" y2="264.56" gradientUnits="userSpaceOnUse">
<stop offset="0.02" stop-color="#612E6F"/>
<stop offset="1" stop-color="#320045"/>
</linearGradient>
<linearGradient id="paint73_linear_103_29" x1="357.59" y1="282.91" x2="357.59" y2="274.74" gradientUnits="userSpaceOnUse">
<stop offset="0.02" stop-color="#612E6F"/>
<stop offset="1" stop-color="#320045"/>
</linearGradient>
<linearGradient id="paint74_linear_103_29" x1="328.81" y1="286.16" x2="328.81" y2="278.56" gradientUnits="userSpaceOnUse">
<stop offset="0.02" stop-color="#612E6F"/>
<stop offset="1" stop-color="#320045"/>
</linearGradient>
<linearGradient id="paint75_linear_103_29" x1="406.16" y1="248.71" x2="406.16" y2="235.8" gradientUnits="userSpaceOnUse">
<stop offset="0.02" stop-color="#612E6F"/>
<stop offset="1" stop-color="#320045"/>
</linearGradient>
<linearGradient id="paint76_linear_103_29" x1="415.2" y1="229.96" x2="415.2" y2="215.41" gradientUnits="userSpaceOnUse">
<stop offset="0.02" stop-color="#612E6F"/>
<stop offset="1" stop-color="#320045"/>
</linearGradient>
<linearGradient id="paint77_linear_103_29" x1="251.5" y1="253.56" x2="251.5" y2="239.04" gradientUnits="userSpaceOnUse">
<stop offset="0.02" stop-color="#612E6F"/>
<stop offset="1" stop-color="#320045"/>
</linearGradient>
<linearGradient id="paint78_linear_103_29" x1="232.63" y1="209.64" x2="232.63" y2="192.05" gradientUnits="userSpaceOnUse">
<stop offset="0.02" stop-color="#612E6F"/>
<stop offset="1" stop-color="#320045"/>
</linearGradient>
<linearGradient id="paint79_linear_103_29" x1="296.77" y1="143.88" x2="296.77" y2="134.13" gradientUnits="userSpaceOnUse">
<stop offset="0.02" stop-color="#612E6F"/>
<stop offset="1" stop-color="#320045"/>
</linearGradient>
<linearGradient id="paint80_linear_103_29" x1="517.74" y1="278.02" x2="517.74" y2="264.86" gradientUnits="userSpaceOnUse">
<stop offset="0.02" stop-color="#612E6F"/>
<stop offset="1" stop-color="#320045"/>
</linearGradient>
<linearGradient id="paint81_linear_103_29" x1="482.09" y1="241.17" x2="482.09" y2="224.83" gradientUnits="userSpaceOnUse">
<stop offset="0.02" stop-color="#612E6F"/>
<stop offset="1" stop-color="#320045"/>
</linearGradient>
<linearGradient id="paint82_linear_103_29" x1="604.74" y1="282.63" x2="604.74" y2="269.71" gradientUnits="userSpaceOnUse">
<stop offset="0.02" stop-color="#612E6F"/>
<stop offset="1" stop-color="#320045"/>
</linearGradient>
<linearGradient id="paint83_linear_103_29" x1="509.62" y1="149.37" x2="509.62" y2="142.8" gradientUnits="userSpaceOnUse">
<stop offset="0.02" stop-color="#612E6F"/>
<stop offset="1" stop-color="#320045"/>
</linearGradient>
<linearGradient id="paint84_linear_103_29" x1="648.32" y1="247.36" x2="648.32" y2="233.13" gradientUnits="userSpaceOnUse">
<stop offset="0.02" stop-color="#612E6F"/>
<stop offset="1" stop-color="#320045"/>
</linearGradient>
<linearGradient id="paint85_linear_103_29" x1="614.05" y1="146.72" x2="614.05" y2="134.13" gradientUnits="userSpaceOnUse">
<stop offset="0.02" stop-color="#612E6F"/>
<stop offset="1" stop-color="#320045"/>
</linearGradient>
<linearGradient id="paint86_linear_103_29" x1="582.07" y1="285.67" x2="582.07" y2="279.66" gradientUnits="userSpaceOnUse">
<stop offset="0.02" stop-color="#612E6F"/>
<stop offset="1" stop-color="#320045"/>
</linearGradient>
<radialGradient id="paint87_radial_103_29" cx="0" cy="0" r="1" gradientUnits="userSpaceOnUse" gradientTransform="translate(261.153 253.398) rotate(45) scale(15.2562 4.4362)">
<stop offset="0.66" stop-color="#6086C0"/>
<stop offset="0.7" stop-color="#5679AD"/>
<stop offset="0.79" stop-color="#3F587E"/>
<stop offset="0.91" stop-color="#192332"/>
<stop offset="0.99"/>
</radialGradient>
<radialGradient id="paint88_radial_103_29" cx="0" cy="0" r="1" gradientUnits="userSpaceOnUse" gradientTransform="translate(357.521 316.66) scale(162.289 20.595)">
<stop stop-color="#7745BA"/>
<stop offset="0.15" stop-color="#956EC9"/>
<stop offset="0.36" stop-color="#BAA1DC"/>
<stop offset="0.56" stop-color="#D8CAEB"/>
<stop offset="0.73" stop-color="#EDE7F6"/>
<stop offset="0.89" stop-color="#FAF8FC"/>
<stop offset="1" stop-color="white"/>
</radialGradient>
<radialGradient id="paint89_radial_103_29" cx="0" cy="0" r="1" gradientUnits="userSpaceOnUse" gradientTransform="translate(533.482 260.135) scale(0.985 0.125)">
<stop stop-color="#7745BA"/>
<stop offset="0.15" stop-color="#956EC9"/>
<stop offset="0.36" stop-color="#BAA1DC"/>
<stop offset="0.56" stop-color="#D8CAEB"/>
<stop offset="0.73" stop-color="#EDE7F6"/>
<stop offset="0.89" stop-color="#FAF8FC"/>
<stop offset="1" stop-color="white"/>
</radialGradient>
<radialGradient id="paint90_radial_103_29" cx="0" cy="0" r="1" gradientUnits="userSpaceOnUse" gradientTransform="translate(745.257 260.135) scale(133.586 16.9525)">
<stop stop-color="#7745BA"/>
<stop offset="0.15" stop-color="#956EC9"/>
<stop offset="0.36" stop-color="#BAA1DC"/>
<stop offset="0.56" stop-color="#D8CAEB"/>
<stop offset="0.73" stop-color="#EDE7F6"/>
<stop offset="0.89" stop-color="#FAF8FC"/>
<stop offset="1" stop-color="white"/>
</radialGradient>
<radialGradient id="paint91_radial_103_29" cx="0" cy="0" r="1" gradientUnits="userSpaceOnUse" gradientTransform="translate(132.823 260.135) scale(133.586 16.9525)">
<stop stop-color="#7745BA"/>
<stop offset="0.15" stop-color="#956EC9"/>
<stop offset="0.36" stop-color="#BAA1DC"/>
<stop offset="0.56" stop-color="#D8CAEB"/>
<stop offset="0.73" stop-color="#EDE7F6"/>
<stop offset="0.89" stop-color="#FAF8FC"/>
<stop offset="1" stop-color="white"/>
</radialGradient>
<clipPath id="clip0_103_29">
<rect width="881.36" height="336.48" fill="white"/>
</clipPath>
</defs>
</svg>
